<svg xmlns="http://www.w3.org/2000/svg" width="150.441" height="245.744" viewBox="0 0 39.804 65.02"><g color="#000" font-weight="400" font-family="sans-serif"><path style="line-height:normal;font-variant-ligatures:normal;font-variant-position:normal;font-variant-caps:normal;font-variant-numeric:normal;font-variant-alternates:normal;font-feature-settings:normal;text-indent:0;text-align:start;text-decoration-line:none;text-decoration-style:solid;text-decoration-color:#000;text-transform:none;text-orientation:mixed;white-space:normal;shape-padding:0;isolation:auto;mix-blend-mode:normal;solid-color:#000;solid-opacity:1" d="M21.014.002a32.757 32.757 0 00-3.576.262c-1.66.204-3.118.466-4.653 1.029-1.564.574-3.15 1.468-4.28 2.266-1.072.758-1.791 1.406-2.52 2.322-.511.643-1.323 1.617-1.731 2.81-.514.793-.7 1.624-.795 1.813-.488.986-.843 2.032-1.253 3.176-.407 1.131-1.028 2.748-1.338 4.133a17.679 17.679 0 00-.436 3.423c-.051 1.303.094 2.81.174 3.788.048.59.11.984.166 1.374-.043.045-.096.079-.135.125-.243.25-.326.484-.346.524a.866.866 0 00-.008.017c-.357.76-.274 1.52-.277 1.66-.016.706.155 1.198.164 1.297.023.25.013.853.067 1.483.051.607.15 1.175.2 1.625.058.511.1.935.151 1.502.031.352.083.724.117 1.037.016.146.026.294.031.408.002.046.001.087 0 .122l-.005.01c-.064.12-.296.53-.348 1.076a.866.866 0 000 .002.646.646 0 00-.002.03.866.866 0 00-.002.02c-.063.787.126 1.486.264 1.936.144.47.345.892.629 1.267.1.134.188.198.286.293.076.69.159 1.391.325 2.23.32 1.617.86 3.366 1.384 5.108.537 1.78 1.27 4.004 1.858 5.602.511 1.388.739 2.482 1.578 3.909l.02.038.002.002v.002a.866.866 0 00.01.015c.037.065.075.13.115.194.933 1.523 2.381 3.1 3.62 4.185 1.212 1.061 2.459 1.913 3.675 2.395 1.098.435 1.943.53 2.886.504 1.032-.03 1.962-.25 3.27-.74 1.366-.513 3.206-1.403 4.853-2.59 1.578-1.138 3.376-2.658 4.678-4.458 1.306-1.804 1.859-3.57 2.627-5.505.845-2.129 1.627-4.923 2.254-6.916.245-.78.495-1.485.74-2.2.19-.057.377-.092.58-.236.236-.166.387-.343.446-.404.479-.498.709-1.061.845-1.356l.006-.007.008-.018a.866.866 0 00.078-.233c.128-.29.267-.599.327-1.002a2.93 2.93 0 00.019-.699 4.001 4.001 0 00-.023-.206c-.002-.017-.006-.031-.008-.045-.001-.099-.004-.186-.01-.166l.029-.073c.054-.132.126-.319.199-.548a.866.866 0 00.008-.032.866.866 0 00.004-.006.866.866 0 00.01-.039.866.866 0 00.002-.008l.008-.027a.866.866 0 00.002-.008.866.866 0 00.008-.056v.025c.1-.328.175-.61.322-1.149.178-.65.477-1.814.664-2.498.17-.62.365-1.139.513-1.812v-.008h.001v-.002-.002a.866.866 0 00.004-.012l.004-.013a.866.866 0 00.004-.012c-.002.007.003-.01 0-.004a.866.866 0 00.003-.006c-.002.005 0-.008 0-.004a.866.866 0 00.003-.014l.004-.025a.866.866 0 00.002-.017l.002-.006a.866.866 0 000-.004.866.866 0 00.003-.02c.118-.57.216-1.13.248-1.755l.001-.038c.027-.52.116-1.334-.144-2.176-.064-.207-.146-.48-.32-.775-.049-.081-.124-.127-.18-.2.136-.574.245-1.148.322-1.774.14-1.134.178-2.653.182-3.854v-.002c.004-1.195-.023-2.441-.144-3.508-.106-.93-.234-1.776-.536-2.832a.866.866 0 00-.021-.101v-.003l-.002-.005a.866.866 0 00-.012-.035.866.866 0 00-.05-.131c-.13-.396-.284-.795-.449-1.186a1.574 1.574 0 00-.163-.963c-.01-.02-.91-1.722-1.689-2.941-.734-1.15-1.846-2.837-2.865-4.055-.886-1.058-1.748-2.237-3.063-3.045l.006.003-.047-.03a.866.866 0 00-.271-.111c-1.143-.609-2.09-.686-2.9-.941C26.513 1.11 25.06.369 23.18.114a13.668 13.668 0 00-1.629-.112.866.866 0 00-.002 0 20.8 20.8 0 00-.535 0zm18.512 31.713v.012l-.012.066.012-.078z" overflow="visible" fill="#dbe5ee"/><path style="line-height:normal;font-variant-ligatures:normal;font-variant-position:normal;font-variant-caps:normal;font-variant-numeric:normal;font-variant-alternates:normal;font-feature-settings:normal;text-indent:0;text-align:start;text-decoration-line:none;text-decoration-style:solid;text-decoration-color:#000;text-transform:none;text-orientation:mixed;white-space:normal;shape-padding:0;isolation:auto;mix-blend-mode:normal;solid-color:#000;solid-opacity:1" d="M21.538.867c-1.355-.02-2.817.11-3.995.256-1.633.201-3.008.45-4.46.982-1.465.538-3.013 1.41-4.077 2.16-1.036.733-1.66 1.294-2.344 2.154-.548.689-1.354 1.662-1.66 2.686-.435.63-.555 1.356-.767 1.785-.454.915-.802 1.932-1.215 3.084-.411 1.146-1.021 2.748-1.308 4.028-.275 1.226-.37 2.117-.416 3.267-.047 1.208.092 2.694.173 3.683.06.735.157 1.3.216 1.768-.165.109-.31.243-.43.397-.09.083-.135.205-.189.315-.238.507-.188 1.042-.194 1.313-.013.544.132.89.16 1.197.034.356.02.92.068 1.49.047.556.143 1.112.197 1.6v.001c.058.516.102.95.152 1.522.029.32.079.688.115 1.02.036.329.05.652.037.745-.02.153-.03.15-.106.293-.072.136-.216.397-.25.752 0 .01 0 .021-.002.032v.003c-.049.596.104 1.212.229 1.618.124.404.27.707.491 1 .13.173.278.304.413.417.078.765.173 1.538.356 2.46.307 1.55.838 3.281 1.364 5.026a108.252 108.252 0 001.842 5.552c.537 1.458.736 2.47 1.53 3.806a10.014 10.014 0 00.12.2c.861 1.404 2.28 2.96 3.454 3.988 1.16 1.016 2.348 1.815 3.422 2.24 1.012.401 1.655.468 2.543.443.932-.026 1.723-.21 2.99-.685 1.294-.486 3.088-1.354 4.651-2.481 1.531-1.105 3.268-2.586 4.482-4.264 1.216-1.68 1.744-3.35 2.525-5.317.816-2.055 1.596-4.84 2.231-6.857.3-.954.608-1.806.894-2.652a1.333 1.333 0 00.754-.23c.146-.104.238-.21.322-.297.338-.352.547-.822.69-1.129l.018-.039v-.004c.14-.302.271-.62.324-.97.029-.196.024-.365.012-.494a2.733 2.733 0 00-.028-.229c-.004-.26-.024-.36-.005-.464-.005.025.03-.08.08-.2.049-.122.113-.287.177-.488v-.001l.01-.027v-.003c.109-.345.182-.633.346-1.233.173-.636.47-1.799.662-2.498.187-.68.38-1.188.514-1.817v-.006l.004-.016a10.45 10.45 0 00.24-1.692l.003-.039c.028-.54.084-1.26-.106-1.875a2.616 2.616 0 00-.238-.59 1.357 1.357 0 00-.351-.39c.199-.602.277-1.315.378-2.132.13-1.058.173-2.569.177-3.751.004-1.18-.026-2.404-.14-3.408-.109-.96-.215-1.743-.53-2.805 0-.002 0-.004-.003-.01v-.001-.001l-.001-.001a14.22 14.22 0 00-.582-1.504.73.73 0 00-.018-.628s-.909-1.708-1.657-2.881c-.727-1.138-1.834-2.812-2.798-3.965-.903-1.08-1.723-2.169-2.853-2.863l-.046-.029h-.005c-1.095-.655-1.954-.643-2.969-.962-1.039-.327-2.386-1.019-4.098-1.251-.48-.066-.995-.096-1.525-.104h-.001zm17.12 30.898l.002-.013v-.003zM7.242 10.91c2.17.066 7.193.3 9.206 1.094 2.583 1.02 2.853 2.18 5.176 3.223 2.324 1.043 6.976 1.534 8.666 2.34 1.69.806 1.831 1.324 1.831 1.324s-.373-1.076-.635-1.474c-.261-.397-.858-.905-.858-.905s1.06.412 1.405.706c.345.293 1.023.765 1.023.765s-.587-1.241-.944-1.757c-.358-.515-1.168-1.259-1.168-1.259s.77.286 1.072.548c.363.316.565.458.861.834.297.375.834 1.31.834 1.31s-.635-2.029-1.028-2.691c-.392-.663-1.126-1.325-1.126-1.325s.459.286.945.618c.347.51.677 1.032.896 1.6.575 1.493.888 3.194 1.084 4.736.12.95.115 1.866.108 2.774a9.13 9.13 0 01-1.108-.102c-.308-.047-.481-.11-.921-.188-.168-.03-.397-.065-.621-.1-.016-.317-.017-.636-.086-.9-.083-.32-.141-.512-.358-.805-.217-.293-.63-.597-.986-.855s-.734-.509-1.14-.684a5.215 5.215 0 00-1.273-.36c-.373-.05-.504-.041-.93.01-.428.051-1.093.244-1.607.371-.514.128-1.006.282-1.476.395-.47.113-.981.177-1.346.288-.365.11-.638.156-.848.336-.21.18-.337.379-.375.645-.039.267.013.597.207.847.193.25.558.387.903.486.065.02.131.031.197.043-.098.016-.204.032-.294.048-.68.124-1.168.296-1.676.4-.508.104-.911.191-1.37.234a7.449 7.449 0 01-1.368.024c-.436-.042-.68-.122-1.228-.258-.548-.136-1.369-.408-2.053-.588-.685-.18-1.334-.355-2.055-.493-.144-.028-.292-.05-.437-.076.338-.049.684-.129.921-.241.287-.136.453-.266.59-.448.136-.182.2-.381.223-.582.023-.201.027-.394-.08-.586-.106-.191-.218-.286-.557-.46-.339-.176-.871-.246-1.511-.407a89.149 89.149 0 00-2.331-.547c-.62-.134-.96-.227-1.383-.275a5.404 5.404 0 00-1.147-.035c-.393.035-.868.067-1.193.246-.325.18-.508.475-.701.729-.194.253-.278.455-.463.774-.185.318-.474.804-.641 1.14-.033.065-.056.118-.086.178.052-.362.104-.725.163-1.08.212-1.268.545-2.856.78-3.97.235-1.115.37-1.982.613-2.718s.35-1.06.753-1.705c.19-.304.585-.775.951-1.192zm.095 9.842c.057 0 .128.003.223.013.382.039.951.467 1.508.688.265.106.577.232.885.345a45.847 45.847 0 00-2.202-.057c-.703-.003-1.185.026-1.76.041l.13-.124c.252-.228.552-.613.81-.749.193-.102.236-.154.406-.157zm20.648 1.129a2.85 2.85 0 011.12.234c.297.138.578.368.815.594-.22-.025-.443-.05-.711-.075-.638-.06-1.483-.15-2.196-.164a18.16 18.16 0 00-1.236.02c.378-.11.762-.237 1.011-.315.375-.117.462-.183.695-.23.175-.035.323-.062.502-.064zm-19.993.515c.355.005.723.015 1.045.027.643.022 1.25.046 1.841.106s1.16.145 1.7.246 1.075.197 1.534.353c.46.155.917.347 1.216.552.3.205.461.346.602.588.141.242.185.485.213.81.028.325-.01.687-.095 1.116-.086.43-.274.978-.46 1.434-.186.455-.4.882-.65 1.292-.248.41-.509.886-.837 1.163-.328.277-.545.354-1.027.505-.482.151-1.24.241-1.865.282-.626.042-1.284-.005-1.877-.035-.592-.03-1.008-.042-1.676-.14-.667-.1-1.721-.318-2.313-.494-.592-.176-.984-.34-1.251-.482-.268-.141-.24-.116-.39-.27-.15-.154-.3-.349-.449-.682-.095-.214-.172-.514-.241-.821.12-.524.302-1.13.393-1.673.096-.565.117-.983.18-1.606a.476.476 0 00.228.082c.171.014.278-.025.48-.233.2-.208.3-.725.488-1.098.174-.347.301-.614.505-.882l.47-.042c.438-.043.715-.077 1.263-.094.273-.009.617-.01.973-.004zm19.21.697c.457 0 .94.013 1.405.047.465.033.91.092 1.38.152l.47.06c.02.034.041.064.061.1.164.292.234.651.357 1 .122.347.262.847.377 1.086.115.239.121.318.233.37.113.053.188.033.304-.04.117-.072.214-.176.287-.429.073-.253-.012-.686-.031-1.061-.013-.236-.034-.491-.056-.745.227.057.438.118.596.188.282.125.413.199.554.353.14.154.206.277.272.528.066.252.048.579.035.964a9.83 9.83 0 01-.142 1.339c-.075.39-.164.637-.283.998-.119.361-.286.81-.437 1.164-.15.354-.236.72-.46.963-.224.242-.503.322-.791.458a5.769 5.769 0 01-.932.353c-.37.106-.852.193-1.287.258-.435.065-.851.104-1.322.13-.47.024-.983.03-1.499.011a18.763 18.763 0 01-1.593-.129c-.522-.065-1.133-.119-1.535-.259-.401-.14-.604-.241-.873-.482-.269-.24-.503-.614-.673-.95-.17-.338-.214-.646-.342-1.047-.129-.401-.331-.969-.425-1.363-.094-.393-.139-.602-.147-.834a2.963 2.963 0 01.017-.54c.023-.202.042-.602.107-.822.065-.22.121-.335.235-.494.114-.158.259-.308.449-.434.19-.127.375-.19.684-.294.31-.104.79-.224 1.18-.294.391-.07.743-.086 1.158-.13.415-.042.888-.099 1.333-.128.445-.03.877-.047 1.334-.047zm-8.976 2.134c.173-.005.35.002.502.015.301.027.574.074.767.188.193.115.213.195.306.385.092.19.146.41.225.744.079.334.202.75.354 1.245.152.494.373 1.259.566 1.715.194.456.336.77.544 1.034.207.265.335.382.637.564.301.182.719.326 1.18.446.461.12 1.086.181 1.582.235.496.054.869.087 1.393.094.523.007 1.164-.031 1.746-.07.583-.04 1.159-.06 1.747-.165.589-.105 1.363-.298 1.77-.47.409-.172.482-.227.709-.423.226-.195.383-.445.564-.76.18-.314.335-.697.474-1.12.14-.422.291-1.03.402-1.41.11-.379.164-.598.26-.868.095-.27.175-.583.306-.752.13-.168.212-.195.375-.28.079 1.377.229 2.958.226 3.861 0 1.016-.27 1.674-.107 1.705.024.004.085.003.133.004l-.007.01a.42.42 0 00-.04.108s0 .18-.006.473a73.45 73.45 0 01-.028 1.145c-.016.448-.038.939-.07 1.403-.017.232-.034.458-.056.669a10.427 10.427 0 01-.167 1.098c-.035.175-.074.35-.115.527-.084.352-.179.706-.281 1.055a28.87 28.87 0 01-.323 1.027c-.112.333-.225.655-.336.96-.11.305-.213.605-.318.898-.103.292-.208.577-.32.85-.055.137-.112.271-.172.402-.06.13-.123.258-.19.382a5.536 5.536 0 01-.209.36 4.394 4.394 0 01-.236.336 5.587 5.587 0 01-.798.836 6.305 6.305 0 01-.586.446c-.102.07-.205.137-.31.203a21.237 21.237 0 01-1.392.789 13.59 13.59 0 01-.805.379c-.135.057-.27.109-.401.154a4.59 4.59 0 01-.386.117 2.82 2.82 0 01-.36.068 1.747 1.747 0 01-.322.008c-.1-.008-.192-.02-.274-.033a1.988 1.988 0 01-.227-.051 1.177 1.177 0 01-.489-.267 1.966 1.966 0 01-.132-.131c-.087-.095-.175-.204-.277-.33a1.102 1.102 0 01-.131-.205 1.66 1.66 0 01-.095-.237 3.237 3.237 0 01-.07-.26c-.02-.091-.04-.185-.058-.28-.038-.19-.075-.389-.13-.586a3.041 3.041 0 00-.095-.295 2.394 2.394 0 00-.131-.288 7.801 7.801 0 00-.37-.593 9.773 9.773 0 00-.955-1.177 6.603 6.603 0 00-.248-.245 4.517 4.517 0 00-.24-.21 14.107 14.107 0 00-.417-.327 7.063 7.063 0 00-.353-.25 5.397 5.397 0 00-.333-.202 7.946 7.946 0 00-.742-.363 6.378 6.378 0 00-.394-.154 5.149 5.149 0 00-.4-.123 4.18 4.18 0 00-.404-.085 2.955 2.955 0 00-.438-.026 4.03 4.03 0 00-.474.038 4.586 4.586 0 00-.463.089 3.48 3.48 0 00-.403.124 1.432 1.432 0 00-.3.157c-.085.055-.157.112-.228.161-.035.025-.07.047-.106.066a.53.53 0 01-.236.071.774.774 0 01-.302-.052c-.05-.019-.1-.044-.149-.072a1.742 1.742 0 01-.146-.096 3.31 3.31 0 01-.143-.112c-.096-.077-.19-.16-.288-.24a3.48 3.48 0 00-.15-.114 1.918 1.918 0 00-.153-.1.943.943 0 00-.167-.076 1.197 1.197 0 00-.184-.046 1.68 1.68 0 00-.197-.022 2.752 2.752 0 00-.205-.002c-.14.004-.283.018-.424.037-.142.018-.281.04-.414.06-.133.019-.234.04-.319.066a1.176 1.176 0 00-.226.095c-.142.077-.286.185-.563.346-.139.08-.286.167-.437.261a9.548 9.548 0 00-.462.303 6.478 6.478 0 00-.68.55 3.698 3.698 0 00-.412.451 5.46 5.46 0 00-.195.266 9.356 9.356 0 00-.364.581c-.232.397-.438.797-.613 1.103a4.224 4.224 0 00-.215.438c-.06.138-.11.269-.16.391-.05.123-.101.238-.16.343-.03.053-.062.103-.098.151a1.164 1.164 0 01-.118.138c-.087.087-.172.17-.259.244a1.61 1.61 0 01-.41.268 1.084 1.084 0 01-.687.056c-.06-.017-.12-.04-.18-.068a1.608 1.608 0 01-.176-.1 2.755 2.755 0 01-.174-.124c-.117-.09-.235-.192-.357-.297a8.084 8.084 0 00-.386-.315 16.345 16.345 0 01-.905-.724c-.156-.134-.31-.272-.455-.411a6.313 6.313 0 01-.398-.416 9.837 9.837 0 01-.327-.398 5.515 5.515 0 01-.756-1.268 5.538 5.538 0 01-.334-1 12.78 12.78 0 01-.125-.578c-.04-.21-.082-.438-.127-.693a19.464 19.464 0 01-.127-.818c-.04-.289-.075-.595-.108-.917a33.002 33.002 0 01-.086-1.016 56.856 56.856 0 01-.063-1.11 24.953 24.953 0 01-.017-.676c-.005-.253-.005-.53 0-.818 0-.577.014-1.202.027-1.779.016-.815.028-1.143.04-1.494.046-.014.087-.063.138-.183.08-.186.074-.41.063-.666.028.063.057.125.086.18.144.28.203.427.496.665.293.239.732.415 1.24.596.507.182 1.034.335 1.747.47.712.135 1.798.264 2.534.323.736.06 1.2.073 1.88.053.679-.02 1.573-.1 2.172-.235.599-.135.984-.218 1.383-.51.398-.292.598-.674.907-1.158.308-.484.705-1.227.944-1.739s.364-.948.52-1.316c.154-.367.222-.691.4-.893.178-.201.288-.25.543-.329.128-.039.295-.057.467-.062zM2.096 26.934c-.002 1.052-.003.618-.005 1.896.003.548-.258.877.142 1.012.112.037.194.08.263.117l-.008.14a51.678 51.678 0 00-.05 4.39c.045 1.476.18 3.042.32 4.456.067.435.092 1.096-.008 1.29l-.063-.051a2.427 2.427 0 01-.41-.404c-.194-.257-.313-.503-.428-.878-.119-.386-.256-.975-.212-1.483v-.015-.002c.026-.269.132-.464.206-.604.072-.136.124-.237.149-.428.025-.197 0-.497-.037-.838-.037-.34-.086-.707-.113-1.012-.05-.57-.095-1.005-.152-1.517v-.014c-.057-.506-.152-1.057-.197-1.591-.046-.54-.03-1.091-.068-1.492-.037-.389-.17-.684-.16-1.152.01-.389-.046-.953.3-1.394.117-.15.262-.277.427-.369zm35.477.494c.194.011.4.103.646.325.088.149.14.305.201.506.16.517.114 1.225.087 1.779v.002a10.12 10.12 0 01-.237 1.649c-.127.595-.317 1.098-.508 1.795-.194.706-.491 1.87-.663 2.498-.169.62-.239.901-.35 1.247v.001c-.06.188-.12.341-.168.46-.048.117-.083.175-.102.279-.032.18-.005.3-.002.539.001.093.02.152.03.26.01.107.013.242-.01.399-.045.302-.166.598-.308.903-.003.004-.006.011 0 0l-.001.001v.001c-.145.31-.347.74-.617 1.022-.093.096-.16.172-.265.247a.944.944 0 01-.373.147.789.789 0 01-.264.003l-.162-.021s.064.076.536-2.465c.316-1.836.144-3.72.247-5.44.053-.89.11-1.67.172-2.468.198-.034.375-.087.433-.163.139-.184.21-1.032.279-1.483.07-.452-.054-.929.145-1.223.2-.294.417-.508.675-.639.202-.102.385-.171.579-.16zm-.194 1.543a1.162 1.162 0 00-.632.166c-.12.077-.221.209-.307.328-.086.119-.15.225-.15.225-.068.13.117.24.199.118 0 0 .058-.096.138-.206.08-.11.19-.236.245-.272a.98.98 0 01.689-.11.16.16 0 01.093.054c.032.036.03.03.032.064.002.034-.004.109-.002.23.005.221-.031.451-.133 1-.099.534-.543 2.252-.543 2.252-.053.157.192.221.223.06 0 0 .443-1.702.549-2.268.102-.552.14-.8.134-1.047-.002-.113.007-.175.002-.243a.352.352 0 00-.085-.199.416.416 0 00-.213-.127 1.044 1.044 0 00-.239-.025zm-23.147 4.223a.093.093 0 00-.013.001.092.092 0 00-.015.004s-.415.112-.674.276c-.248.156-.522.4-.746.677a4.3 4.3 0 00-.57.97c-.146.335-.273.685-.31 1.048-.035.358-.008.75.096 1.062.106.309.265.521.473.739.216.225.54.44.79.556.248.116.455.144.638.168.194.026.364.016.496.006.143-.01.32-.049.32-.049a.092.092 0 10-.039-.18s-.176.04-.295.048c-.13.009-.286.017-.459-.006-.183-.025-.36-.048-.584-.153a2.788 2.788 0 01-.734-.517c-.2-.209-.336-.39-.432-.67-.092-.276-.12-.651-.086-.987.033-.331.151-.665.293-.992a4.15 4.15 0 01.545-.927c.212-.261.475-.495.702-.637.214-.135.626-.254.626-.254a.093.093 0 00-.022-.183zm6.567.605a.092.092 0 00-.023.18s.512.18.74.338c.24.167.522.444.686.683.164.24.254.489.318.726.064.238.088.4.076.655-.011.248-.083.57-.176.844-.093.275-.21.545-.373.771a2.393 2.393 0 01-.594.584c-.195.121-.328.14-.537.186-.202.044-.48.086-.63.06-.145-.024-.354-.16-.354-.16a.092.092 0 10-.103.15s.211.156.427.192c.21.035.49-.017.7-.063.204-.044.373-.072.593-.208.224-.14.471-.386.649-.633.178-.25.3-.537.396-.82.098-.287.172-.618.184-.894a2.115 2.115 0 00-.08-.71v-.002a2.518 2.518 0 00-.346-.782 3.104 3.104 0 00-.73-.73c-.277-.192-.788-.361-.788-.361a.092.092 0 00-.035-.006zm-7.031 2.349a.269.269 0 00-.133.044c-.085.056-.131.141-.159.263-.031.14.005.327.038.472.034.14.065.278.17.415.104.137.267.258.44.337.176.08.406.13.58.12a.73.73 0 00.402-.137c.123-.089.188-.242.233-.303l.057-.078.441.712.002.004.107-.06-.002-.004-.021-.034c-.025-.047-.278-.532-.465-.756-.016-.027-.045-.046-.065-.067a4.469 4.469 0 00-.423-.443 2.541 2.541 0 00-.507-.371c-.172-.085-.409-.104-.543-.11-.063-.002-.108-.007-.153-.004zm6.727.1a1.406 1.406 0 00-.411.092 2.287 2.287 0 00-.491.213c-.209.12-.475.345-.696.518-.22.173-.626.514-.638.524l-.008.006.077.096v-.001l.678-.54-.014.146c-.006.054-.018.13-.028.204a.928.928 0 00-.012.209c.005.046.005.078.014.113.009.036.03.07.061.102.078.08.195.098.307.115.116.018.233.016.395-.012.164-.03.406-.098.575-.188a1.492 1.492 0 00.656-.702.943.943 0 00.112-.316c.013-.111.014-.243-.038-.343v-.001c-.045-.087-.105-.125-.188-.165a.806.806 0 00-.35-.07zm-5.729 7.384a1.298 1.298 0 01.361.06c.15.047.295.112.47.172.088.03.182.073.278.123.097.05.196.106.293.16.098.053.195.104.288.145.046.02.091.038.135.052a.77.77 0 00.126.03c.08.012.143.018.196.02a.713.713 0 00.143-.012c.092-.018.19-.054.376-.108.093-.027.208-.076.335-.134.127-.058.267-.125.411-.19a5.62 5.62 0 01.218-.092c.073-.029.146-.055.217-.078a1.85 1.85 0 01.21-.053.839.839 0 01.393.006c.068.017.139.041.212.07.073.03.148.066.225.106.077.04.155.083.234.13.159.092.32.195.483.296.161.1.323.199.479.281.156.083.307.163.454.243.146.081.29.162.432.246a10.195 10.195 0 01.855.57c.146.11.275.2.39.282a6.1 6.1 0 01.304.227 2.19 2.19 0 01.242.231 1.58 1.58 0 01.2.29 1.926 1.926 0 01.224.703c.018.124.028.255.033.393.005.14.007.286.006.444 0 .159-.011.334-.032.52-.02.184-.05.378-.085.573a13.028 13.028 0 01-.254 1.11 7.715 7.715 0 01-.294.874c-.109.27-.23.538-.375.851-.072.157-.146.325-.224.498-.078.173-.16.351-.247.528a7.126 7.126 0 01-.283.52 4.436 4.436 0 01-.33.476c-.12.148-.241.292-.368.43a6.194 6.194 0 01-.4.396 4.234 4.234 0 01-.446.346 3.507 3.507 0 01-1.075.477 4.198 4.198 0 01-.598.112 5.931 5.931 0 01-.652.043c-.228.005-.468 0-.724-.012a6.03 6.03 0 01-.406-.034 9.025 9.025 0 01-.442-.063 12.34 12.34 0 01-.938-.193c-.315-.076-.628-.16-.919-.247a14.184 14.184 0 01-.793-.26c-.231-.085-.442-.158-.636-.228a7.274 7.274 0 01-.54-.214 2.76 2.76 0 01-.683-.424c-.07-.06-.139-.125-.207-.197a2.156 2.156 0 01-.188-.23 2.626 2.626 0 01-.158-.252 3.433 3.433 0 01-.134-.27 5.123 5.123 0 01-.116-.285 11.78 11.78 0 01-.2-.597c-.063-.202-.126-.406-.196-.607-.07-.2-.14-.411-.208-.627a16.394 16.394 0 01-.192-.657c-.06-.22-.113-.44-.158-.655a7.672 7.672 0 01-.105-.623 10.195 10.195 0 01-.056-.594 7.885 7.885 0 01-.017-.572c0-.186.01-.364.024-.531a3.645 3.645 0 01.18-.851 2.631 2.631 0 01.281-.584c.057-.087.12-.172.19-.26a1.743 1.743 0 01.226-.237c.08-.071.165-.136.254-.2.178-.127.37-.247.569-.395.198-.148.421-.322.65-.49.114-.083.23-.165.344-.24.114-.077.228-.147.337-.207.109-.06.218-.122.326-.18.108-.058.215-.113.32-.162.107-.049.211-.091.314-.123a1.644 1.644 0 01.3-.062h.001c.05-.004.095-.005.14-.004zm.551 1.188a2.978 2.978 0 00-1.31.259c-.545.242-.992.658-1.368 1.008-.158.146-.314.262-.488.442a1.95 1.95 0 00-.449.745c-.082.252-.137.505-.09.768.028.162.074.276.125.38a15.349 15.349 0 00.404 2.159c.123.458.221.855.43 1.32.21.467.565 1.083.843 1.449.279.366.447.535.755.774.308.238.657.477 1.091.625.435.147.974.156 1.478.2.504.044 1.088.107 1.543.063.455-.044.853-.099 1.165-.277.312-.18.54-.507.789-.787.248-.28.455-.57.694-.895.24-.325.436-.584.616-.957.18-.374.28-.793.428-1.281.135-.445.374-1.361.419-1.535.113-.187.21-.408.216-.735.005-.205-.022-.571-.201-.886-.229-.402-.62-.842-.98-1.204-.34-.342-.74-.728-1.201-.992a3.287 3.287 0 00-1.216-.428c-.509-.066-.887.059-1.106.077-.363.032-.685.086-.84.08-.21-.008-.298-.038-.61-.102-.136-.028-.565-.255-1.136-.27z" overflow="visible" fill="#112154"/></g></svg>