<?xml version="1.0" encoding="UTF-8" standalone="no"?>
<svg
   xml:space="preserve"
   width="26.458334mm"
   height="26.45887mm"
   version="1.1"
   style="clip-rule:evenodd;fill-rule:evenodd;image-rendering:optimizeQuality;shape-rendering:geometricPrecision;text-rendering:geometricPrecision"
   viewBox="0 0 3285.199 3285.2657"
   id="svg19"
   sodipodi:docname="kq-logo.svg"
   inkscape:version="1.1 (c4e8f9e, 2021-05-24)"
   inkscape:export-filename="C:\Users\Kev\Downloads\kq-logo.png"
   inkscape:export-xdpi="96"
   inkscape:export-ydpi="96"
   xmlns:inkscape="http://www.inkscape.org/namespaces/inkscape"
   xmlns:sodipodi="http://sodipodi.sourceforge.net/DTD/sodipodi-0.dtd"
   xmlns="http://www.w3.org/2000/svg"
   xmlns:svg="http://www.w3.org/2000/svg"
   xmlns:rdf="http://www.w3.org/1999/02/22-rdf-syntax-ns#"
   xmlns:cc="http://creativecommons.org/ns#"
   xmlns:dc="http://purl.org/dc/elements/1.1/"><metadata
   id="metadata23"><rdf:RDF><cc:Work
       rdf:about=""><dc:format>image/svg+xml</dc:format><dc:type
         rdf:resource="http://purl.org/dc/dcmitype/StillImage" /></cc:Work></rdf:RDF></metadata><sodipodi:namedview
   pagecolor="#ffffff"
   bordercolor="#666666"
   borderopacity="1"
   objecttolerance="10"
   gridtolerance="10"
   guidetolerance="10"
   inkscape:pageopacity="0"
   inkscape:pageshadow="2"
   inkscape:window-width="1440"
   inkscape:window-height="847"
   id="namedview21"
   showgrid="false"
   fit-margin-top="0"
   fit-margin-left="0"
   fit-margin-right="0"
   fit-margin-bottom="0"
   inkscape:zoom="1"
   inkscape:cx="47.5"
   inkscape:cy="136.5"
   inkscape:window-x="0"
   inkscape:window-y="25"
   inkscape:window-maximized="1"
   inkscape:current-layer="svg19"
   inkscape:document-rotation="0"
   showborder="true"
   inkscape:pagecheckerboard="0"
   inkscape:document-units="mm" />
 <defs
   id="defs4">
  <style
   type="text/css"
   id="style2">
   <![CDATA[
    .fil0 {fill:black}
    .fil1 {fill:white}
   ]]>
  </style>
 
  
  
 
   
   
  
    
    
    
   </defs>
 
<path
   style="fill:#dbe5ee;fill-opacity:1;stroke-width:0.0696914"
   d="M 1642.6351,0 C 735.38833,0 0,735.45336 0,1642.6308 c 0,907.1769 735.38833,1642.6348 1642.6351,1642.6348 257.9989,0 502.0577,-59.5858 719.2868,-165.5869 l -313.6138,-313.5424 c -127.048,44.324 -263.5717,68.4347 -405.673,68.4347 -158.0958,0 -309.2331,-29.7926 -448.1183,-84.0456 v -954.4041 l 96.8708,96.8482 778.5947,778.5947 431.394,431.4612 142.2405,142.2402 h 580.74 L 2832.828,2893.6698 2628.0064,2688.9152 1581.7217,1642.6308 2424.6468,799.78178 C 2321.7815,704.37393 2201.5631,627.50353 2069.0791,574.53789 l -777.6915,777.68701 -96.8708,96.8705 V 583.38718 c -158.13,66.9739 -298.07235,168.37432 -410.69441,294.72551 V 2525.9082 C 553.63242,2302.0805 410.62337,1989.0611 410.62337,1642.6308 c 0,-680.40055 551.6117,-1231.94047 1232.01173,-1231.94047 680.3304,0 1231.9409,551.53992 1231.9409,1231.94047 0,326.157 -126.7683,622.6265 -333.6831,842.9918 l 290.5446,290.5446 C 3112.5736,2481.3711 3285.1989,2082.1763 3285.1989,1642.6308 3285.1989,735.45336 2549.8123,0 1642.6351,0 Z"
   id="path844"
   inkscape:connector-curvature="0" /></svg>
