<?xml version="1.0" encoding="UTF-8" standalone="no"?>
<!-- Generated by IcoMoon.io -->

<svg
   version="1.1"
   width="31.999998"
   height="32.000015"
   viewBox="0 0 31.999998 32.000015"
   id="svg833"
   sodipodi:docname="warning.svg"
   inkscape:version="1.1 (c4e8f9e, 2021-05-24)"
   xmlns:inkscape="http://www.inkscape.org/namespaces/inkscape"
   xmlns:sodipodi="http://sodipodi.sourceforge.net/DTD/sodipodi-0.dtd"
   xmlns="http://www.w3.org/2000/svg"
   xmlns:svg="http://www.w3.org/2000/svg">
  <defs
     id="defs837" />
  <sodipodi:namedview
     id="namedview835"
     pagecolor="#ffffff"
     bordercolor="#666666"
     borderopacity="1.0"
     inkscape:pageshadow="2"
     inkscape:pageopacity="0.0"
     inkscape:pagecheckerboard="0"
     showgrid="false"
     inkscape:zoom="1.4707031"
     inkscape:cx="50.316069"
     inkscape:cy="277.7583"
     inkscape:window-width="1920"
     inkscape:window-height="1027"
     inkscape:window-x="0"
     inkscape:window-y="25"
     inkscape:window-maximized="1"
     inkscape:current-layer="svg833"
     fit-margin-top="0"
     fit-margin-left="0"
     fit-margin-right="0"
     fit-margin-bottom="0" />
  <title
     id="title824" />
  <g
     id="icomoon-ignore"
     transform="translate(1.8433617e-4)" />
  <g
     id="g1241"
     transform="matrix(0.06250003,0,0,0.06250003,1.1521016e-5,0)">
    <path
       style="fill:#ffeeaa;stroke:#000000;stroke-width:1px;stroke-linecap:butt;stroke-linejoin:miter;stroke-opacity:1"
       d="M 253.62019,21.7583 17.678619,485.48207 H 495.00133 Z"
       id="path952" />
    <path
       d="M 256,46.387 470.551,474 H 41.448 Z M 256,0 C 244.965,0 233.93,7.441 225.558,22.324 L 7.021,457.88 C -9.722,487.646 4.521,512 38.673,512 h 434.654 c 34.15,0 48.396,-24.354 31.65,-54.12 h 0.001 L 286.441,22.324 C 278.07,7.441 267.035,0 256,0 Z"
       id="path827"
       style="fill:#112154;fill-opacity:1" />
    <path
       d="m 288,416 c 0,17.673 -14.327,32 -32,32 -17.673,0 -32,-14.327 -32,-32 0,-17.673 14.327,-32 32,-32 17.673,0 32,14.327 32,32 z"
       id="path829"
       style="fill:#112154;fill-opacity:1" />
    <path
       d="m 256,352 c -17.673,0 -32,-14.327 -32,-32 v -96 c 0,-17.673 14.327,-32 32,-32 17.673,0 32,14.327 32,32 v 96 c 0,17.673 -14.327,32 -32,32 z"
       id="path831"
       style="fill:#112154;fill-opacity:1" />
  </g>
</svg>
